<?xml version="1.0" encoding="UTF-8"?>
<svg width="411px" height="471px" viewBox="0 0 411 471" version="1.1" xmlns="http://www.w3.org/2000/svg" xmlns:xlink="http://www.w3.org/1999/xlink">
    <!-- Generator: Sketch 53.2 (72643) - https://sketchapp.com -->
    <title>logoicon</title>
    <desc>Created with Sketch.</desc>
    <g id="Page-1" stroke="none" stroke-width="1" fill="none" fill-rule="evenodd">
        <g id="logoicon" fill-rule="nonzero">
            <path d="M194.614419,347.232558 C194.614419,343.186047 194.614419,339.27907 194.614419,335.44186 C159.96403,331.608875 129.466849,310.994594 113.159315,280.383057 C96.8517822,249.771519 96.8462918,213.127986 113.144651,182.511628 L-1.84741111e-13,117.767442 L-1.84741111e-13,352.953488 L205.289767,470.372093 C197.836953,429.750942 194.262634,388.521383 194.614419,347.232558 L194.614419,347.232558 Z" id="Shape" fill="#006EE5"></path>
            <path d="M298.066977,181.813953 C318.346474,219.019984 314.078248,264.695914 287.251163,297.55814 L295.257674,302.651163 C330.764825,324.634953 369.174704,341.61122 409.385581,353.093023 L410.228372,353.093023 L410.228372,117.209302 L298.066977,181.813953 Z" id="Shape" fill="#006EE5"></path>
            <path d="M194.825116,347.023256 C194.825116,342.976744 194.825116,339.069767 194.825116,335.232558 C162.515287,331.831002 133.593049,313.809954 116.445581,286.395349 L0.210697674,352.953488 L205.289767,470.372093 L205.289767,470.372093 C197.887263,429.676464 194.383385,388.375588 194.825116,347.023256 L194.825116,347.023256 Z" id="Shape" fill="#0053CC"></path>
            <path d="M205.289767,127.325581 C244.010793,127.132224 279.717651,148.055467 298.277674,181.813953 L410.649767,117.488372 L205.289767,5.68434189e-14 L1.42108547e-13,117.767442 L113.144651,182.581395 C131.355698,148.789959 166.705999,127.59177 205.289767,127.325581 Z M286.33814,120.348837 C293.733188,108.129116 298.180279,94.3747349 299.331163,80.1627907 L299.331163,78.5581395 C299.331163,77.2325581 299.893023,77.7209302 300.244186,78.5581395 L300.244186,78.5581395 L300.244186,78.5581395 C315.769753,103.818981 318.222623,134.92485 306.846047,162.27907 C298.797156,150.769003 288.819844,140.716177 277.348372,132.55814 C280.612436,128.821187 283.571567,124.831819 286.197674,120.627907 L286.33814,120.348837 Z M108.790233,79.8837209 L108.790233,79.8837209 L108.790233,79.8837209 C108.790233,79.3255814 109.562791,78.8372093 109.703256,79.8837209 C109.703256,79.8837209 115.111163,109.046512 122.766512,121.744186 C125.495291,126.138295 128.596789,130.292921 132.037209,134.162791 C120.476978,142.812623 110.539634,153.416256 102.68,165.488372 C90.5687041,137.776981 92.7959239,105.943442 108.649767,80.1627907 L108.790233,79.8837209 Z" id="Shape" fill="#0092FF"></path>
        </g>
    </g>
</svg>