<svg xmlns="http://www.w3.org/2000/svg" viewBox="0 0 364.11 73.65"><defs><style>.cls-1{fill:#333;}.cls-2{fill:#0c5cea;}</style></defs><title>资源 3</title><g id="图层_2" data-name="图层 2"><g id="图层_1-2" data-name="图层 1"><path class="cls-1" d="M18.56,63.09c-1.61.15-3.1.22-4.47.22q-6.21,0-9.17-1.51a7.63,7.63,0,0,1-3.94-5A43,43,0,0,1,0,46.1,42.75,42.75,0,0,1,1,35.51a7.72,7.72,0,0,1,3.94-5.09q3-1.55,9.17-1.54a43.94,43.94,0,0,1,4.45.24,30,30,0,0,1,3.91.64v5.62a63.52,63.52,0,0,0-6.6-.49,19.43,19.43,0,0,0-6.16.66,3.62,3.62,0,0,0-2.21,2.82A41.35,41.35,0,0,0,7,46.1a41.3,41.3,0,0,0,.48,7.72,3.62,3.62,0,0,0,2.21,2.82,19.43,19.43,0,0,0,6.16.66,43.1,43.1,0,0,0,6.8-.49v5.72A35.62,35.62,0,0,1,18.56,63.09Z"/><path class="cls-1" d="M31.23,62.21a5.28,5.28,0,0,1-3-3.64,36,36,0,0,1-.66-8.17,35.54,35.54,0,0,1,.66-8.14,5.23,5.23,0,0,1,3-3.6c1.56-.72,4.16-1.08,7.78-1.08s6.21.36,7.77,1.08a5.23,5.23,0,0,1,3,3.6,35.54,35.54,0,0,1,.66,8.14,36,36,0,0,1-.66,8.17,5.28,5.28,0,0,1-3,3.64c-1.58.74-4.17,1.1-7.75,1.1S32.81,63,31.23,62.21Zm11.25-4.77a2.32,2.32,0,0,0,1.18-1.85,40.85,40.85,0,0,0,.22-5.19,40.06,40.06,0,0,0-.22-5.16,2.25,2.25,0,0,0-1.18-1.81A8.93,8.93,0,0,0,39,43a9,9,0,0,0-3.5.46,2.25,2.25,0,0,0-1.18,1.81,40.06,40.06,0,0,0-.22,5.16,40.85,40.85,0,0,0,.22,5.19,2.32,2.32,0,0,0,1.18,1.85,8.45,8.45,0,0,0,3.5.49A8.43,8.43,0,0,0,42.48,57.44Z"/><path class="cls-1" d="M61.39,62.92,53.37,38h6.7l5.48,18.68H66L71.42,38H78l-8,24.94Z"/><path class="cls-1" d="M103,52.41H87.46a12.14,12.14,0,0,0,.39,3.71,2.37,2.37,0,0,0,1.76,1.45,22,22,0,0,0,4.85.36q2.88,0,7.58-.39v5a32.29,32.29,0,0,1-4.11.56c-1.7.15-3.36.22-5,.22-3.62,0-6.28-.4-8-1.22a5.84,5.84,0,0,1-3.28-3.81A30.66,30.66,0,0,1,81,50.5a29.61,29.61,0,0,1,.75-7.66,6.36,6.36,0,0,1,3.18-3.93q2.43-1.33,7.51-1.33c3.33,0,5.74.44,7.24,1.3a5.65,5.65,0,0,1,2.81,3.82,38.64,38.64,0,0,1,.57,7.8Zm-13.9-9.22a2.2,2.2,0,0,0-1.29,1.54,16,16,0,0,0-.37,3.67h9.39a12.81,12.81,0,0,0-.39-3.72,2.3,2.3,0,0,0-1.32-1.54,8.05,8.05,0,0,0-2.84-.37A8.77,8.77,0,0,0,89.12,43.19Z"/><path class="cls-1" d="M124.59,49.72a23.55,23.55,0,0,0-.27-4.36,2.1,2.1,0,0,0-1.1-1.59,8.27,8.27,0,0,0-2.94-.36,6,6,0,0,0-3.1.63,3.07,3.07,0,0,0-1.32,2,18.72,18.72,0,0,0-.32,4V62.92H109V38h6.12l.19,3.08h.39a5.6,5.6,0,0,1,2.79-2.64,11.58,11.58,0,0,1,4.75-.84,9.43,9.43,0,0,1,5,1.08,5.15,5.15,0,0,1,2.27,3.13,21.5,21.5,0,0,1,.56,5.53v15.6h-6.5Z"/><path class="cls-1" d="M138.55,61.6q-1.83-1.71-1.83-5.67a12.57,12.57,0,0,1,.68-4.6,4.41,4.41,0,0,1,2.38-2.42,11.86,11.86,0,0,1,4.77-.76c1.69,0,4.24.07,7.63.2v-.93a7.14,7.14,0,0,0-.47-3.08A2.3,2.3,0,0,0,150,43.21a27.42,27.42,0,0,0-4.41-.24c-1,0-2.26,0-3.76.14s-2.69.2-3.57.3v-5a56,56,0,0,1,9.49-.79,18.4,18.4,0,0,1,7.14,1.06A5.38,5.38,0,0,1,158,41.77a18.61,18.61,0,0,1,.73,5.94V62.92h-6.11l-.2-3H152a5.57,5.57,0,0,1-3.18,2.74,14.72,14.72,0,0,1-4.7.68C141.64,63.31,139.78,62.74,138.55,61.6Zm11.3-3.79a3.2,3.2,0,0,0,1.59-1.2,7.08,7.08,0,0,0,.74-3.67v-.78h-5.87a7.59,7.59,0,0,0-2.16.22,1.39,1.39,0,0,0-.92.86,5.77,5.77,0,0,0-.25,2,4.27,4.27,0,0,0,.32,1.91,1.74,1.74,0,0,0,1.17.81,12.11,12.11,0,0,0,2.77.22A7.57,7.57,0,0,0,149.85,57.81Z"/><path class="cls-1" d="M181.14,49.72a24.49,24.49,0,0,0-.27-4.36,2.1,2.1,0,0,0-1.1-1.59,8.31,8.31,0,0,0-2.94-.36,6,6,0,0,0-3.11.63,3.1,3.1,0,0,0-1.32,2,18.85,18.85,0,0,0-.31,4V62.92h-6.51V38h6.11l.2,3.08h.39a5.6,5.6,0,0,1,2.79-2.64,11.56,11.56,0,0,1,4.74-.84,9.41,9.41,0,0,1,5,1.08,5.2,5.2,0,0,1,2.28,3.13,22,22,0,0,1,.56,5.53v15.6h-6.5Z"/><path class="cls-1" d="M196.94,62.92V43.36h-4.8V38h4.8V30.74h6.5V38h5.67v5.38h-5.67V62.92Z"/><path class="cls-2" d="M213.76,62.53V56.71c4,.39,7.44.59,10.27.59a27.35,27.35,0,0,0,3.89-.22,4.56,4.56,0,0,0,2.08-.76,2.15,2.15,0,0,0,.81-1.17,8.84,8.84,0,0,0,.17-2,7.94,7.94,0,0,0-.2-2.08,1.57,1.57,0,0,0-.78-1,5.76,5.76,0,0,0-1.95-.46l-7.2-.83a11.4,11.4,0,0,1-5-1.69,6.35,6.35,0,0,1-2.42-3.23,15.74,15.74,0,0,1-.66-4.92c0-2.87.53-5,1.57-6.53a7.2,7.2,0,0,1,4.21-2.91,28.09,28.09,0,0,1,6.79-.68,52.31,52.31,0,0,1,11,1v5.67a72.34,72.34,0,0,0-9.54-.64q-4.4,0-5.82.74a1.76,1.76,0,0,0-1,1,7.09,7.09,0,0,0-.19,1.91,8.1,8.1,0,0,0,.19,2.11,1.4,1.4,0,0,0,.86.9,9.57,9.57,0,0,0,2.23.47l7.72.93a12.36,12.36,0,0,1,3.72.9,4.85,4.85,0,0,1,2.3,2.18,13.85,13.85,0,0,1,1.18,6.5q0,4.65-1.47,7a6.8,6.8,0,0,1-3.94,3.06,24.36,24.36,0,0,1-6.48.7A83.6,83.6,0,0,1,213.76,62.53Z"/><path class="cls-2" d="M324.88,62.92l-2.45-7.24H309.32l-2.39,7.24h-7l11.4-33.65h9.34l11.4,33.65ZM316,35.82h-.25l-4.55,13.8h9.39Z"/><path class="cls-2" d="M357.46,62.92,343.71,41.55h-.19V62.92h-6.71V29.27H344l13.16,20.15h.25V29.27h6.7V62.92Z"/><path class="cls-2" d="M263.71,15a3.79,3.79,0,0,1-3.63-2.74L258,5.19a3.71,3.71,0,0,1,.32-2.88,3.78,3.78,0,0,1,6.94.79l2.12,7.09A3.79,3.79,0,0,1,263.71,15Z"/><path class="cls-2" d="M274.06,73.65a27.54,27.54,0,1,1,17.42-48.84,3.92,3.92,0,0,1-5,6.06,19.7,19.7,0,1,0,0,30.5,3.9,3.9,0,0,1,5.25.26,3.94,3.94,0,0,1-.27,5.8,27.53,27.53,0,0,1-17.42,6.22Z"/><path class="cls-2" d="M247.48,25a3.79,3.79,0,0,1-2.43-.89l-5.72-4.7a3.78,3.78,0,1,1,4.85-5.79l5.72,4.69A3.78,3.78,0,0,1,247.48,25Z"/><path class="cls-2" d="M281.71,38.26a11.08,11.08,0,0,0-10.82-2.85,5.5,5.5,0,0,1-7.76,7.79,11.11,11.11,0,1,0,18.58-4.94Z"/><path class="cls-2" d="M282.11,14.56a3.92,3.92,0,0,1-1.3-.23,3.82,3.82,0,0,1-2.26-2.26h0a3.78,3.78,0,0,1,0-2.59l2.45-7a3.76,3.76,0,0,1,2-2.14,3.72,3.72,0,0,1,2.89-.13,3.78,3.78,0,0,1,2.26,4.84l-2.46,7a3.75,3.75,0,0,1-2,2.14A3.69,3.69,0,0,1,282.11,14.56Z"/><path class="cls-2" d="M298.11,22.72a3.75,3.75,0,0,1-2.89-1.35,3.79,3.79,0,0,1-.83-3.09h0a3.77,3.77,0,0,1,1.29-2.23l5.62-4.82A3.78,3.78,0,1,1,306.17,17l-5.62,4.82A3.77,3.77,0,0,1,298.11,22.72Z"/></g></g></svg>